<svg width="1440" height="866" viewBox="0 0 1440 866" fill="none" xmlns="http://www.w3.org/2000/svg">
<g clip-path="url(#clip0_1_9)">
<circle opacity="0.6" cx="1290" cy="166" r="203" fill="#7C3AED"/>
<circle opacity="0.6" cx="913" cy="548" r="84" fill="#1DB5BE"/>
<g filter="url(#filter0_b_1_9)">
<path d="M0 0H1440V572L0 752V0Z" fill="#F2F7FF" fill-opacity="0.7"/>
</g>
<path d="M0 594.005L420 541.488V605.488L0 658.005V594.005Z" fill="#75E3EA"/>
<path d="M-432 584.808L180 508V572L-432 648.808V584.808Z" fill="#C4B5FD"/>
<path d="M0 500.517L420 448V512L0 564.517V500.517Z" fill="#EDE9FE"/>
<path d="M1020 688.016L1440 635.499V699.499L1020 752.016V688.016Z" fill="#75E3EA"/>
<path d="M-152 771.005L268 718.488V782.488L-152 835.005V771.005Z" fill="#EDE9FE"/>
</g>
<defs>
<filter id="filter0_b_1_9" x="-100" y="-100" width="1640" height="952" filterUnits="userSpaceOnUse" color-interpolation-filters="sRGB">
<feFlood flood-opacity="0" result="BackgroundImageFix"/>
<feGaussianBlur in="BackgroundImageFix" stdDeviation="50"/>
<feComposite in2="SourceAlpha" operator="in" result="effect1_backgroundBlur_1_9"/>
<feBlend mode="normal" in="SourceGraphic" in2="effect1_backgroundBlur_1_9" result="shape"/>
</filter>
<clipPath id="clip0_1_9">
<rect width="1440" height="866" fill="white"/>
</clipPath>
</defs>
</svg>
