<svg width="30" height="30" viewBox="0 0 30 30" fill="none" xmlns="http://www.w3.org/2000/svg">
<g id="Group">
<path id="Vector" d="M5.66658 0.333313H1.66659C1.31296 0.333313 0.973824 0.473788 0.723775 0.723836C0.473727 0.973885 0.333252 1.31302 0.333252 1.66665V28.3333C0.333252 28.6869 0.473727 29.0261 0.723775 29.2761C0.973824 29.5262 1.31296 29.6666 1.66659 29.6666H5.66658V0.333313Z" fill="#C4B5FD"/>
<path id="Vector_2" d="M8.33325 29.6666H21.6666V0.333313H8.33325V29.6666ZM14.9999 24.3333C14.6463 24.3333 14.3072 24.1928 14.0571 23.9428C13.8071 23.6927 13.6666 23.3536 13.6666 23C13.6666 22.6464 13.8071 22.3072 14.0571 22.0572C14.3072 21.8071 14.6463 21.6666 14.9999 21.6666C15.3535 21.6666 15.6927 21.8071 15.9427 22.0572C16.1928 22.3072 16.3333 22.6464 16.3333 23C16.3333 23.3536 16.1928 23.6927 15.9427 23.9428C15.6927 24.1928 15.3535 24.3333 14.9999 24.3333ZM14.9999 5.66665C15.3535 5.66665 15.6927 5.80712 15.9427 6.05717C16.1928 6.30722 16.3333 6.64636 16.3333 6.99998C16.3333 7.3536 16.1928 7.69274 15.9427 7.94279C15.6927 8.19284 15.3535 8.33331 14.9999 8.33331C14.6463 8.33331 14.3072 8.19284 14.0571 7.94279C13.8071 7.69274 13.6666 7.3536 13.6666 6.99998C13.6666 6.64636 13.8071 6.30722 14.0571 6.05717C14.3072 5.80712 14.6463 5.66665 14.9999 5.66665ZM14.9999 13.6666C15.3535 13.6666 15.6927 13.8071 15.9427 14.0572C16.1928 14.3072 16.3333 14.6464 16.3333 15C16.3333 15.3536 16.1928 15.6927 15.9427 15.9428C15.6927 16.1928 15.3535 16.3333 14.9999 16.3333C14.6463 16.3333 14.3072 16.1928 14.0571 15.9428C13.8071 15.6927 13.6666 15.3536 13.6666 15C13.6666 14.6464 13.8071 14.3072 14.0571 14.0572C14.3072 13.8071 14.6463 13.6666 14.9999 13.6666Z" fill="#7C3AED"/>
<path id="Vector_3" d="M28.3333 0.333313H24.3333V29.6666H28.3333C28.6869 29.6666 29.026 29.5262 29.2761 29.2761C29.5261 29.0261 29.6666 28.6869 29.6666 28.3333V1.66665C29.6666 1.31302 29.5261 0.973885 29.2761 0.723836C29.026 0.473788 28.6869 0.333313 28.3333 0.333313Z" fill="#1DB5BE"/>
</g>
</svg>
